<svg width="75" height="54" viewBox="0 0 75 54" fill="none" xmlns="http://www.w3.org/2000/svg">
<path d="M70.3684 53.204C72.7372 48.316 74.072 42.8264 74.072 37.036C74.072 16.5816 57.4904 0 37.036 0C16.5816 0 0 16.5816 0 37.036C0 42.8264 1.3348 48.316 3.7036 53.204H70.3684Z" fill="#E2EEEF"/>
<g clip-path="url(#clip0_39:3037)">
<path d="M49.738 39.2954C49.5962 39.2954 49.4546 39.2413 49.3464 39.1332L44.3345 34.1212C44.1182 33.9049 44.1182 33.5543 44.3345 33.3381C44.5509 33.1218 44.9014 33.122 45.1176 33.3381L50.1295 38.3501C50.3457 38.5665 50.3457 38.917 50.1295 39.1333C50.0214 39.2413 49.8797 39.2954 49.738 39.2954Z" fill="#365558"/>
<path d="M45.6464 13.4007C42.8086 10.5629 39.0355 9 35.0222 9C31.0088 9 27.2357 10.5629 24.3979 13.4007C18.5397 19.259 18.5397 28.791 24.3979 34.6493C27.2357 37.487 31.0088 39.05 35.0222 39.05C39.0356 39.05 42.8086 37.487 45.6465 34.6493C48.4843 31.8114 50.0472 28.0383 50.0472 24.0249C50.0472 20.0116 48.4843 16.2386 45.6464 13.4007Z" fill="#4ACFD9"/>
<path d="M54.8344 40.5487L50.6578 36.3722C50.4415 36.156 50.0909 36.156 49.8746 36.3722L47.3686 38.8782C47.1523 39.0945 47.1523 39.4451 47.3686 39.6613L51.5452 43.8379C51.6533 43.9459 51.7951 44 51.9368 44C52.0785 44 52.2202 43.9459 52.3285 43.8379L54.8344 41.3319C55.0505 41.1156 55.0505 40.765 54.8344 40.5487Z" fill="#9BAAAB"/>
<path d="M48.5862 37.6604L47.3685 38.8782C47.1522 39.0945 47.1522 39.4451 47.3685 39.6613L51.545 43.8378C51.6532 43.9459 51.7949 44 51.9367 44C52.0784 44 52.2201 43.9459 52.3283 43.8378L53.546 42.6201L48.5862 37.6604Z" fill="#687F82"/>
<path d="M24.3623 13.4365C18.5394 19.2976 18.5508 28.8029 24.3971 34.6493C27.235 37.487 31.008 39.0499 35.0214 39.0499C39.0181 39.0499 42.7762 37.4996 45.61 34.6841L24.3623 13.4365Z" fill="#0295AA"/>
<path d="M42.6418 16.4046C38.44 12.2028 31.6031 12.2028 27.4011 16.4046C25.3657 18.44 24.2446 21.1464 24.2446 24.025C24.2446 26.9036 25.3657 29.61 27.4011 31.6454C29.502 33.7463 32.2617 34.7968 35.0214 34.7968C37.7811 34.7968 40.5408 33.7463 42.6417 31.6454C46.8436 27.4435 46.8436 20.6066 42.6418 16.4046Z" fill="#E6EAEA"/>
<path d="M27.3662 16.4404C25.3531 18.4718 24.2446 21.1632 24.2446 24.025C24.2446 26.9036 25.3657 29.61 27.4011 31.6454C29.502 33.7463 32.2617 34.7968 35.0214 34.7968C37.7656 34.7968 40.5095 33.7577 42.606 31.6803L27.3662 16.4404Z" fill="#CDD4D5"/>
<path d="M47.2777 24.5787C46.9718 24.5787 46.724 24.3308 46.724 24.0249C46.724 22.4571 46.422 20.939 45.8264 19.513C45.7086 19.2308 45.8418 18.9064 46.124 18.7885C46.4064 18.6706 46.7305 18.8039 46.8484 19.0861C47.5007 20.648 47.8315 22.3097 47.8315 24.0249C47.8314 24.3309 47.5836 24.5787 47.2777 24.5787Z" fill="white"/>
<path d="M45.0245 17.491C44.8513 17.491 44.6809 17.4101 44.5728 17.2584C44.193 16.7248 43.7636 16.2174 43.2963 15.7501C41.086 13.5397 38.1472 12.3225 35.0214 12.3225C34.7155 12.3225 34.4676 12.0746 34.4676 11.7687C34.4676 11.4628 34.7155 11.2149 35.0214 11.2149C38.4431 11.2149 41.6599 12.5474 44.0795 14.9668C44.5902 15.4776 45.0598 16.0325 45.4752 16.6159C45.6524 16.8651 45.5943 17.2109 45.3452 17.3882C45.2478 17.4576 45.1356 17.491 45.0245 17.491Z" fill="white"/>
<path d="M30.8162 19.632H28.1582C27.8524 19.632 27.6044 19.8798 27.6044 20.1857V27.569C27.6044 27.875 27.8524 28.1228 28.1582 28.1228H30.8162C31.122 28.1228 31.3699 27.875 31.3699 27.569V20.1857C31.3699 19.8798 31.122 19.632 30.8162 19.632Z" fill="#9BAAAB"/>
<path d="M36.1321 20.518H33.4742C33.1683 20.518 32.9204 20.7658 32.9204 21.0718V27.5691C32.9204 27.875 33.1683 28.1228 33.4742 28.1228H36.1321C36.438 28.1228 36.6859 27.875 36.6859 27.5691V21.0718C36.6859 20.7658 36.438 20.518 36.1321 20.518Z" fill="#F0353D"/>
<path d="M41.4481 17.86H38.7902C38.4843 17.86 38.2364 18.1078 38.2364 18.4137V27.569C38.2364 27.8749 38.4843 28.1228 38.7902 28.1228H41.4481C41.754 28.1228 42.0018 27.8749 42.0018 27.569V18.4137C42.0019 18.1078 41.754 17.86 41.4481 17.86Z" fill="#FF8C29"/>
<path d="M42.6294 28.1228H26.9769C26.671 28.1228 26.4231 27.8749 26.4231 27.569C26.4231 27.2631 26.671 27.0153 26.9769 27.0153H42.6295C42.9354 27.0153 43.1832 27.2631 43.1832 27.569C43.1832 27.8748 42.9353 28.1228 42.6294 28.1228Z" fill="#365558"/>
</g>
<defs>
<clipPath id="clip0_39:3037">
<rect width="35" height="35" fill="white" transform="translate(20 9)"/>
</clipPath>
</defs>
</svg>
